<svg height="99.404" viewBox="0 0 128.717 99.404" width="128.717" xmlns="http://www.w3.org/2000/svg"><g fill="#232323"><path d="m88.778 51.368c0-14.584-11.823-26.407-26.408-26.407s-26.407 11.823-26.407 26.407c0 5.545 1.717 10.685 4.637 14.934-2.866 2.976-4.637 7.015-4.637 11.473 0 9.143 7.412 16.556 16.556 16.556s16.555-7.412 16.555-16.556c0-.297-.029-.587-.045-.88 11.354-2.956 19.748-13.248 19.748-25.527z"/><path d="m100.179 99.404c-.537 0-1.081-.144-1.571-.446-1.41-.869-1.849-2.718-.979-4.128 2.365-3.836 2.39-12.436-1.344-19.123-2.183-3.911-6.443-8.572-14.342-8.572-1.657 0-3-1.343-3-3s1.343-3 3-3c8.434 0 15.388 4.137 19.581 11.647 4.462 7.993 4.994 19.061 1.212 25.196-.567.92-1.55 1.426-2.557 1.426z"/><path d="m119.484 78.64c-.155 0-.313-.012-.47-.036-1.637-.258-2.755-1.793-2.498-3.43 1.183-7.516-1.931-14.74-8.123-18.854-6.034-4.009-13.447-4.042-19.827-.093-1.41.873-3.258.437-4.13-.972s-.437-3.258.972-4.13c8.43-5.217 18.263-5.144 26.305.196 8.17 5.427 12.282 14.924 10.731 24.783-.233 1.479-1.509 2.534-2.96 2.534z"/><path d="m83.625 43.004c-.453 0-.912-.103-1.344-.319-1.48-.743-2.079-2.547-1.336-4.027 6.232-12.417 19.341-15.395 28.684-14.149 9.973 1.317 17.441 7.163 19.026 14.893.333 1.623-.713 3.208-2.336 3.541-1.623.341-3.209-.714-3.541-2.336-1.064-5.188-6.534-9.172-13.936-10.149-7.386-.981-17.717 1.292-22.534 10.893-.526 1.049-1.585 1.655-2.684 1.655z"/><path d="m8.709 78.64c-.05 0-.1 0-.15-.004-1.654-.081-2.931-1.488-2.849-3.144.328-6.688 3.046-12.369 7.857-16.43 7.587-6.402 18.791-7.661 26.75-6.702 1.646.198 2.818 1.692 2.62 3.337-.198 1.646-1.696 2.816-3.337 2.62-6.395-.767-16.041.164-22.164 5.331-3.557 3.001-5.485 7.085-5.734 12.139-.078 1.604-1.404 2.853-2.993 2.853z"/><path d="m43.774 41.242c-1.197 0-2.327-.721-2.792-1.902-3.599-9.14-12.741-13.332-20.207-13.432-.101-.002-.201-.002-.302-.002-6.947 0-12.3 3.238-14.713 8.916-.648 1.526-2.41 2.237-3.934 1.588-1.525-.647-2.236-2.409-1.588-3.934 3.353-7.892 10.902-12.57 20.24-12.57.126 0 .251 0 .377.002 9.47.127 21.092 5.505 25.708 17.234.607 1.541-.15 3.283-1.692 3.89-.36.143-.732.21-1.098.21z"/><path d="m57.002 38.117c-.322 0-.651-.053-.974-.163-1.567-.538-2.401-2.244-1.864-3.812 3.486-10.161-2.125-19.129-7.989-23.72-5.877-4.602-12.551-5.72-17.003-2.851-1.393.898-3.249.496-4.147-.896-.897-1.393-.497-3.249.896-4.147 6.629-4.274 16.031-3.033 23.953 3.169 7.415 5.806 14.475 17.248 9.967 30.392-.427 1.244-1.592 2.027-2.838 2.027z"/></g></svg>