<svg enable-background="new 0 0 180.416 63.275" height="64" viewBox="0 0 180.416 63.275" width="181" xmlns="http://www.w3.org/2000/svg"><path d="m162.228 63.308c-1.816 0-3.479-.528-4.987-1.585-4.196-2.944-5.756-9.593-5.675-17.053-8.348-.919-17.456-2.224-25.212-5.087-.092.529-.197 1.054-.314 1.571-2.524 11.09-10.008 18.054-19.532 18.175-3.748.041-8.701-1.439-12.267-8.178-1.163 2.993-2.938 5.722-5.641 7.376-3.827 2.344-10.387 1.848-16.714-1.262-1.369-.673-2.66-1.433-3.866-2.27-3.008 3.83-7.135 6.075-11.79 6.31-8.827.45-17.459-3.581-24.081-10.782-10.969 3.101-23.796 1.307-31.428-7.607-1.078-1.259-.931-3.152.328-4.23s3.152-.931 4.23.328c4.683 5.471 13.727 8.331 22.908 6.458-1.377-2.063-2.613-4.297-3.682-6.683-5.733-12.805-4.765-25.812 2.467-33.136 5.038-5.102 11.49-6.863 17.699-4.834 6.868 2.244 12.046 8.684 13.192 16.405 1.514 10.197-4.088 20.574-15.37 28.469-1.315.92-2.725 1.75-4.206 2.48 4.631 4.397 10.618 7.481 17.64 7.141 3.543-.179 5.953-2.079 7.56-4.248-3.729-4.039-6.062-9.089-6.667-14.69-.41-3.802 1.404-7.074 4.622-8.334 3.172-1.245 6.671-.096 8.916 2.923 3.143 4.226 3.375 12.102.666 18.78 1.354.997 2.606 1.694 3.508 2.138 5.139 2.526 9.487 2.417 10.933 1.53 4.527-2.772 5.069-13.361 4.902-16.852-.079-1.648 1.188-3.053 2.836-3.141 1.657-.088 3.058 1.169 3.155 2.817.003.043.307 4.746 1.949 9.284 1.892 5.226 4.619 7.863 8.122 7.81 9.942-.126 13.044-10.37 13.758-13.507.212-.931.37-1.862.478-2.782-.642-.348-1.268-.711-1.875-1.091-9.908-6.2-9.553-13.219-7.781-16.389 1.608-2.877 4.734-3.993 7.435-2.656 5.608 2.78 8.171 9.465 8.363 16.417 7.316 3.038 16.599 4.406 25.144 5.354.663-5.841 2.122-11.712 3.939-16.341.605-1.542 2.346-2.302 3.889-1.696 1.542.605 2.302 2.346 1.696 3.889-1.828 4.659-3.032 9.884-3.589 14.771 12.411 1.265 20.603 2.139 22.27 7.344 1.279 3.993-2.384 7.807-5.251 10.328-4.799 4.219-9.041 6.336-12.677 6.336zm-4.701-18.015c-.002 5.587 1.036 10.028 3.16 11.518 1.878 1.318 5.616-.266 10.255-4.346 2.698-2.374 3.304-3.617 3.437-4.011-1.589-1.565-10.559-2.518-16.852-3.161zm-93.512-11.737c-.132 0-.26.024-.384.072-.635.249-.959 1.055-.846 2.104.413 3.824 1.788 6.872 3.503 9.262 1.112-4.312.669-8.548-.745-10.45-.476-.64-1.024-.988-1.528-.988zm-24.422-27.557c-2.949 0-5.832 1.318-8.35 3.869-5.396 5.464-5.903 16.101-1.261 26.468 1.067 2.383 2.485 4.856 4.219 7.198 1.653-.741 3.278-1.655 4.853-2.757 9.35-6.543 14.042-14.807 12.875-22.672-.815-5.492-4.396-10.039-9.121-11.583-1.071-.35-2.148-.523-3.215-.523zm76.632 16.529c-.109.213-.221.569-.206 1.092.022.753.427 3.244 4.411 6.196-.669-3.342-2.132-6.017-4.205-7.288z" fill="#232323"/></svg>